<svg xmlns="http://www.w3.org/2000/svg" viewBox="0 0 858.41 210.51"><title>SunSister_logo</title><path d="M126.83,73.47S96.41,22.53,36.47,53.26c0,0-19.51,6.43-30.7,15.07,0,0-5,13.38-5.77,26.31,0,0,37.89-63.9,101.15-32.09,0,0-47.31-17.49-77.8,29.8,0,0-15.66,18.21-21.51,36,0,0,5.14,18.74,10.05,26.34,0,0-.81-22.93,4.62-38.47,0,0,2.15,18,9.92,30,0,0-3.45-46.58,43-66.2,0,0-50.22,30.68-20.53,89,0,0,8.54,24.78,17.44,34.85A98.86,98.86,0,0,0,97,210.51S22.77,174.58,59.22,103.8c0,0-20.22,48.55,30,80.27,0,0,21.74,18.83,42.92,23.24,0,0,13.51-3.31,30.61-13.78,0,0-30.49,4.89-50.55-3.32,0,0,22.55-4.11,29.91-9.8,0,0-45,4.24-66.21-43.18,0,0,32.9,51,89.06,20.61,0,0,26.2-8.26,41.72-23a81.7,81.7,0,0,0,3.75-32.61S173,185.6,99.85,147.54c0,0,51.46,18.65,79.73-29.39,0,0,17.71-17.4,24.91-47.69,0,0-3-11.57-15.34-28.74,0,0,5.86,36.47-2.91,52.86,0,0-3.68-21.55-9.86-29.85,0,0,.45,50.55-42,65.72,0,0,49.56-32.59,19.7-88.39,0,0-6.66-23-20.51-38.78,0,0-14.64-3.86-27.9-3.21,0,0,74.12,37.42,37.88,106.79,0,0,19.65-48.07-29.15-79.52,0,0-20.07-17.64-40.42-22.94,0,0-15.73,5.08-25.42,11.76,0,0,26.15-2.21,42,4.38,0,0-20.54,3.86-29.93,9.82C60.65,30.36,110.41,28.7,126.83,73.47Z" style="fill:#f2932c"/><path d="M301.33,83.14H272.84l3-17.27H258.9l-6.62,32.72h33q6.06,0,9,4.47T295.75,115l-7.09,42.42H212.35l6.49-30.45h28.49l-3,17.43h17.83l5.7-32.73H234.94q-6.06,0-9-4.47t-1.54-11.89s9-39.42,9.46-42.42h73.21" style="fill:#040000"/><path d="M541.33,83.14H512.85l3-17.27H498.91l-6.62,32.72h32.94q6.07,0,9,4.47T535.76,115l-7.1,42.42H452.35l6.5-30.45h28.48l-3,17.43h17.83l5.7-32.73H475q-6.07,0-9-4.47t-1.55-11.89s9-39.42,9.46-42.42H547.1" style="fill:#040000"/><path d="M339.84,73.75l-12.63,72.11h14.24l12.64-72.11h26.25L368.7,141a21.93,21.93,0,0,1-5.82,11.89,14.2,14.2,0,0,1-10.4,4.47H312.22c-4,0-7-1.48-9-4.47S300.79,146,301.7,141l11.76-67.26Z" style="fill:#040000"/><path d="M445.24,157.37H419l12.64-72.11H417.37l-12.63,72.11H378.36L393,73.75H449.2a7.71,7.71,0,0,1,7,3.63q2.3,3.65,1.3,9.4Z" style="fill:#040000"/><path d="M566,157.37H539.61L554.1,73.75h26.39Zm16.11-93H555.71l2-11.51h26.38Z" style="fill:#040000"/><path d="M640.8,109.65a7.7,7.7,0,0,1,7,3.64q2.3,3.63,1.3,9.39L646,141a21,21,0,0,1-5.76,11.89,14.39,14.39,0,0,1-10.46,4.47H589.53c-4,0-7-1.48-9-4.47S578.09,146,579,141l1.48-8h26.39l-2.36,12.88h14.25l4.33-24.69H595.84q-6.06,0-9-4.47t-1.54-11.9l3.09-18a16.91,16.91,0,0,1,4.65-9.4,11.53,11.53,0,0,1,8.36-3.63H647a7.71,7.71,0,0,1,7,3.63q2.29,3.65,1.3,9.4l-2,11.36H627.05l2.36-12.88H615.16l-4.33,24.39Z" style="fill:#040000"/><path d="M676,157.37c-4,0-7-1.48-9-4.47S664.54,146,665.45,141l9.66-55.75H662.35l2-11.51h12.76l3.59-20.91h26.38l-3.59,20.91h12.88l-2,11.51H701.49L691,145.86h12.88l-2,11.51Z" style="fill:#040000"/><path d="M724.52,86.78a16.91,16.91,0,0,1,4.65-9.4,11.53,11.53,0,0,1,8.36-3.63h45.58a7.7,7.7,0,0,1,7,3.63q2.29,3.65,1.3,9.4l-8.17,47.57h-40.5l-2.11,11.51h40.5l-2,11.51h-53.5c-4,0-7-1.48-9-4.47S714.2,146,715.11,141Zm26.76-1.52-6.57,37.27H759l6.57-37.27Z" style="fill:#040000"/><path d="M856.42,85.26H830.79l-12.64,72.11H791.77L804,86.78a16.9,16.9,0,0,1,4.64-9.4A11.53,11.53,0,0,1,817,73.75h41.37Z" style="fill:#040000"/></svg>